<svg width="208" height="56" viewBox="0 0 208 56" fill="none" xmlns="http://www.w3.org/2000/svg">
<path d="M26.1352 9L2 34H8.29116L26.1352 15.5673L43.8648 34L68 9H61.766L43.8648 27.4327L26.1352 9Z" fill="#FF6600"/>
<path d="M49.4125 9L39.747 18.989L42.7782 22.1898L55.5893 9H49.4125Z" fill="#FF6600"/>
<path d="M26.1352 20.8653L13.3813 34H19.5581L26.1352 27.2119L32.5979 34H38.8319L26.1352 20.8653Z" fill="#FF6600"/>
<path d="M26.1352 9L2 34H8.29116L26.1352 15.5673L43.8648 34L68 9H61.766L43.8648 27.4327L26.1352 9Z" stroke="#FF6600"/>
<path d="M49.4125 9L39.747 18.989L42.7782 22.1898L55.5893 9H49.4125Z" stroke="#FF6600"/>
<path d="M26.1352 20.8653L13.3813 34H19.5581L26.1352 27.2119L32.5979 34H38.8319L26.1352 20.8653Z" stroke="#FF6600"/>
<path d="M95.979 29.672V35H77.516V8.73H95.646V14.058H83.584V19.164H93.944V24.085H83.584V29.672H95.979ZM115.353 8.767H120.94L123.678 17.166L126.416 8.767H132.04L127.563 20.977L130.227 27.97L136.813 8.73H143.436L133.187 35H127.933L123.678 24.714L119.46 35H114.169L103.957 8.73H110.543L117.166 27.97L119.756 20.977L115.353 8.767ZM164.034 35.222C161.937 35.222 160.149 34.8767 158.669 34.186C157.189 33.4707 155.98 32.5087 155.043 31.3C154.13 30.0667 153.452 28.673 153.008 27.119C152.589 25.5403 152.379 23.8877 152.379 22.161V8.73H158.447V22.161C158.447 23.1477 158.546 24.1097 158.743 25.047C158.94 25.9597 159.261 26.7737 159.705 27.489C160.149 28.2043 160.716 28.7717 161.407 29.191C162.122 29.6103 162.998 29.82 164.034 29.82C165.095 29.82 165.983 29.6103 166.698 29.191C167.413 28.747 167.981 28.1673 168.4 27.452C168.819 26.712 169.128 25.8857 169.325 24.973C169.522 24.0603 169.621 23.123 169.621 22.161V8.73H175.689V22.161C175.689 23.9863 175.455 25.6883 174.986 27.267C174.542 28.8457 173.851 30.2393 172.914 31.448C171.977 32.632 170.768 33.557 169.288 34.223C167.833 34.889 166.081 35.222 164.034 35.222ZM203.182 16.426C203.108 16.3027 202.849 16.1177 202.405 15.871C201.961 15.5997 201.406 15.316 200.74 15.02C200.074 14.724 199.347 14.465 198.557 14.243C197.768 14.021 196.979 13.91 196.189 13.91C195.153 13.91 194.352 14.095 193.784 14.465C193.217 14.8103 192.933 15.353 192.933 16.093C192.933 16.685 193.143 17.1537 193.562 17.499C194.006 17.8443 194.635 18.1527 195.449 18.424C196.263 18.6707 197.262 18.9667 198.446 19.312C200.124 19.756 201.579 20.2987 202.812 20.94C204.046 21.5567 204.983 22.3583 205.624 23.345C206.29 24.3317 206.623 25.639 206.623 27.267C206.623 28.747 206.352 30.005 205.809 31.041C205.267 32.0523 204.527 32.8787 203.589 33.52C202.677 34.1367 201.628 34.593 200.444 34.889C199.26 35.1603 198.039 35.296 196.781 35.296C195.499 35.296 194.179 35.1727 192.822 34.926C191.49 34.6547 190.208 34.2847 188.974 33.816C187.741 33.3227 186.606 32.7307 185.57 32.04L188.234 26.749C188.333 26.8723 188.654 27.1067 189.196 27.452C189.739 27.7727 190.405 28.118 191.194 28.488C192.008 28.8333 192.909 29.1417 193.895 29.413C194.882 29.6843 195.881 29.82 196.892 29.82C197.978 29.82 198.779 29.6473 199.297 29.302C199.84 28.9567 200.111 28.4757 200.111 27.859C200.111 27.193 199.828 26.675 199.26 26.305C198.718 25.935 197.965 25.602 197.003 25.306C196.066 25.01 194.981 24.677 193.747 24.307C192.144 23.8137 190.812 23.2587 189.751 22.642C188.715 22.0253 187.938 21.273 187.42 20.385C186.927 19.497 186.68 18.387 186.68 17.055C186.68 15.205 187.112 13.651 187.975 12.393C188.863 11.1103 190.047 10.1483 191.527 9.507C193.007 8.841 194.623 8.508 196.374 8.508C197.608 8.508 198.792 8.656 199.926 8.952C201.086 9.248 202.159 9.618 203.145 10.062C204.157 10.506 205.057 10.95 205.846 11.394L203.182 16.426Z" fill="#480DEC"/>
<path d="M9.368 46.52H6.92V53H4.58V46.52H2.12V44.48H9.368V46.52ZM29.7323 50.96V53H23.6603V44.48H29.6243V46.52H26.0003V47.72H29.0963V49.616H26.0003V50.96H29.7323ZM43.6635 48.668C43.6635 48.148 43.7595 47.64 43.9515 47.144C44.1515 46.64 44.4395 46.184 44.8155 45.776C45.1915 45.368 45.6475 45.044 46.1835 44.804C46.7275 44.556 47.3395 44.432 48.0195 44.432C48.8355 44.432 49.5475 44.604 50.1555 44.948C50.7635 45.284 51.2155 45.732 51.5115 46.292L49.7235 47.564C49.6195 47.284 49.4675 47.068 49.2675 46.916C49.0755 46.764 48.8635 46.66 48.6315 46.604C48.4075 46.54 48.1875 46.508 47.9715 46.508C47.6355 46.508 47.3435 46.576 47.0955 46.712C46.8555 46.84 46.6555 47.012 46.4955 47.228C46.3435 47.444 46.2275 47.684 46.1475 47.948C46.0755 48.212 46.0395 48.476 46.0395 48.74C46.0395 49.036 46.0835 49.32 46.1715 49.592C46.2595 49.864 46.3875 50.108 46.5555 50.324C46.7235 50.532 46.9275 50.696 47.1675 50.816C47.4155 50.936 47.6915 50.996 47.9955 50.996C48.2115 50.996 48.4315 50.964 48.6555 50.9C48.8795 50.828 49.0835 50.716 49.2675 50.564C49.4515 50.412 49.5915 50.208 49.6875 49.952L51.5955 51.092C51.4275 51.508 51.1475 51.864 50.7555 52.16C50.3635 52.456 49.9195 52.684 49.4235 52.844C48.9275 52.996 48.4355 53.072 47.9475 53.072C47.3155 53.072 46.7355 52.948 46.2075 52.7C45.6875 52.444 45.2355 52.108 44.8515 51.692C44.4755 51.268 44.1835 50.796 43.9755 50.276C43.7675 49.748 43.6635 49.212 43.6635 48.668ZM73.4044 44.48V53H71.0644V49.664H68.2084V53H65.8684V44.48H68.2084V47.624H71.0644V44.48H73.4044ZM90.6484 48.812V53H88.3084V44.48H90.1324L93.5524 48.812V44.48H95.8924V53H94.0324L90.6484 48.812ZM114.635 53.072C113.987 53.072 113.399 52.952 112.871 52.712C112.343 52.464 111.887 52.136 111.503 51.728C111.127 51.312 110.835 50.848 110.627 50.336C110.427 49.816 110.327 49.28 110.327 48.728C110.327 48.16 110.435 47.62 110.651 47.108C110.867 46.596 111.167 46.14 111.551 45.74C111.943 45.332 112.403 45.012 112.931 44.78C113.467 44.548 114.051 44.432 114.683 44.432C115.331 44.432 115.919 44.556 116.447 44.804C116.975 45.044 117.427 45.372 117.803 45.788C118.179 46.204 118.467 46.672 118.667 47.192C118.875 47.704 118.979 48.232 118.979 48.776C118.979 49.336 118.871 49.872 118.655 50.384C118.447 50.896 118.147 51.356 117.755 51.764C117.371 52.164 116.915 52.484 116.387 52.724C115.859 52.956 115.275 53.072 114.635 53.072ZM112.703 48.752C112.703 49.04 112.743 49.32 112.823 49.592C112.903 49.856 113.023 50.096 113.183 50.312C113.343 50.52 113.543 50.688 113.783 50.816C114.031 50.936 114.323 50.996 114.659 50.996C114.995 50.996 115.287 50.932 115.535 50.804C115.783 50.676 115.983 50.504 116.135 50.288C116.295 50.064 116.411 49.82 116.483 49.556C116.563 49.284 116.603 49.008 116.603 48.728C116.603 48.44 116.563 48.164 116.483 47.9C116.403 47.636 116.283 47.4 116.123 47.192C115.963 46.976 115.759 46.808 115.511 46.688C115.263 46.568 114.975 46.508 114.647 46.508C114.311 46.508 114.019 46.572 113.771 46.7C113.531 46.828 113.331 47 113.171 47.216C113.011 47.424 112.891 47.664 112.811 47.936C112.739 48.2 112.703 48.472 112.703 48.752ZM133.411 53V44.48H135.751V50.96H139.615V53H133.411ZM157.605 53.072C156.957 53.072 156.369 52.952 155.841 52.712C155.313 52.464 154.857 52.136 154.473 51.728C154.097 51.312 153.805 50.848 153.597 50.336C153.397 49.816 153.297 49.28 153.297 48.728C153.297 48.16 153.405 47.62 153.621 47.108C153.837 46.596 154.137 46.14 154.521 45.74C154.913 45.332 155.373 45.012 155.901 44.78C156.437 44.548 157.021 44.432 157.653 44.432C158.301 44.432 158.889 44.556 159.417 44.804C159.945 45.044 160.397 45.372 160.773 45.788C161.149 46.204 161.437 46.672 161.637 47.192C161.845 47.704 161.949 48.232 161.949 48.776C161.949 49.336 161.841 49.872 161.625 50.384C161.417 50.896 161.117 51.356 160.725 51.764C160.341 52.164 159.885 52.484 159.357 52.724C158.829 52.956 158.245 53.072 157.605 53.072ZM155.673 48.752C155.673 49.04 155.713 49.32 155.793 49.592C155.873 49.856 155.993 50.096 156.153 50.312C156.313 50.52 156.513 50.688 156.753 50.816C157.001 50.936 157.293 50.996 157.629 50.996C157.965 50.996 158.257 50.932 158.505 50.804C158.753 50.676 158.953 50.504 159.105 50.288C159.265 50.064 159.381 49.82 159.453 49.556C159.533 49.284 159.573 49.008 159.573 48.728C159.573 48.44 159.533 48.164 159.453 47.9C159.373 47.636 159.253 47.4 159.093 47.192C158.933 46.976 158.729 46.808 158.481 46.688C158.233 46.568 157.945 46.508 157.617 46.508C157.281 46.508 156.989 46.572 156.741 46.7C156.501 46.828 156.301 47 156.141 47.216C155.981 47.424 155.861 47.664 155.781 47.936C155.709 48.2 155.673 48.472 155.673 48.752ZM180.065 53.06C179.513 53.06 178.985 52.964 178.481 52.772C177.985 52.572 177.545 52.284 177.161 51.908C176.777 51.524 176.473 51.064 176.249 50.528C176.033 49.984 175.925 49.364 175.925 48.668C175.925 48.068 176.037 47.512 176.261 47C176.485 46.488 176.793 46.04 177.185 45.656C177.585 45.264 178.049 44.96 178.577 44.744C179.105 44.528 179.677 44.42 180.293 44.42C181.061 44.42 181.757 44.588 182.381 44.924C183.005 45.252 183.469 45.704 183.773 46.28L182.033 47.612C181.865 47.276 181.613 47.008 181.277 46.808C180.941 46.6 180.585 46.496 180.209 46.496C179.929 46.496 179.673 46.552 179.441 46.664C179.209 46.776 179.005 46.932 178.829 47.132C178.661 47.332 178.529 47.572 178.433 47.852C178.345 48.124 178.301 48.424 178.301 48.752C178.301 49.088 178.349 49.392 178.445 49.664C178.541 49.936 178.673 50.172 178.841 50.372C179.017 50.564 179.225 50.716 179.465 50.828C179.705 50.932 179.973 50.984 180.269 50.984C180.645 50.984 181.005 50.892 181.349 50.708C181.693 50.516 182.005 50.248 182.285 49.904V52.184C181.645 52.768 180.905 53.06 180.065 53.06ZM182.165 50.144H180.593V48.464H184.097V53H182.165V50.144ZM199.94 44.48L201.464 47.96L203.024 44.48H205.568L202.628 50.18V53H200.3V50.156L197.408 44.48H199.94Z" fill="#333333"/>
</svg>
